<svg fill="#0059b3" id="Capa_1" height="512" viewBox="0 0 512 512" width="512" xmlns="http://www.w3.org/2000/svg"><g><path d="m363.452 289.986c4.077.734 7.977-1.972 8.713-6.049l4.792-26.552c.108.35 7.838 26.599 8.03 27.2 1.197 3.56 4.515 5.943 8.266 5.942h.046c3.771-.02 7.086-2.442 8.25-6.028.065-.175 7.612-26.704 7.749-27.166l5.099 26.68c.777 4.069 4.706 6.737 8.774 5.959 4.069-.777 6.736-4.706 5.959-8.774l-10.08-52.743c-.791-3.879-4.103-6.743-8.055-6.966-3.941-.218-7.565 2.251-8.787 6.017-.062.166-8.932 31.334-9.058 31.758-.12-.39-9.225-31.301-9.4-31.842-1.262-3.753-4.915-6.192-8.851-5.923-3.95.265-7.231 3.165-7.996 7.138l-9.5 52.638c-.736 4.074 1.972 7.975 6.049 8.711z"/><path d="m198.611 275.481c-2.372.013-6.715.033-11.429.043v-46.55c0-4.142-3.358-7.5-7.5-7.5s-7.5 3.358-7.5 7.5v54.007c0 3.653 2.632 6.774 6.232 7.392.542.093 14.037.143 20.238.108 4.142-.023 7.481-3.4 7.458-7.542-.024-4.128-3.377-7.458-7.499-7.458z"/><path d="m149.155 236.72c4.142 0 7.5-3.358 7.5-7.5s-3.358-7.5-7.5-7.5h-22.568c-4.142 0-7.5 3.358-7.5 7.5v53.56c0 4.142 3.358 7.5 7.5 7.5h22.568c4.142 0 7.5-3.358 7.5-7.5s-3.358-7.5-7.5-7.5h-15.068v-11.78h13.404c4.142 0 7.5-3.358 7.5-7.5s-3.358-7.5-7.5-7.5h-13.404v-11.78z"/><path d="m451.932 290.28h22.568c4.142 0 7.5-3.358 7.5-7.5s-3.358-7.5-7.5-7.5h-15.068v-11.78h13.404c4.142 0 7.5-3.358 7.5-7.5s-3.358-7.5-7.5-7.5h-13.404v-11.78h15.068c4.142 0 7.5-3.358 7.5-7.5s-3.358-7.5-7.5-7.5h-22.568c-4.142 0-7.5 3.358-7.5 7.5v53.56c0 4.142 3.358 7.5 7.5 7.5z"/><path d="m266.393 269.65c-3.174-2.661-7.904-2.245-10.566.929-2.275 2.61-5.505 4.645-11.279 4.948-10.767 0-19.527-8.759-19.527-19.526s8.76-19.526 19.527-19.526c3.915 0 7.688 1.151 10.912 3.33 3.433 2.318 8.095 1.417 10.414-2.016s1.417-8.094-2.016-10.413c-5.713-3.861-12.391-5.901-19.31-5.901-19.038 0-34.527 15.488-34.527 34.526s15.489 34.526 34.527 34.526c8.227-.17 16.874-3.184 22.774-10.311 2.661-3.175 2.245-7.905-.929-10.566z"/><path d="m97.524 221.717c-4.062-.807-8.011 1.829-8.82 5.892l-5.689 28.588-9.067-29.431c-1.219-3.959-5.418-6.18-9.375-4.959-2.667.822-4.54 2.997-5.108 5.539l-8.933 28.858-5.674-28.685c-.803-4.063-4.751-6.706-8.813-5.902-4.063.804-6.706 4.75-5.902 8.813.274.987 10.369 53.19 10.821 54.296 1.235 3.477 4.532 5.801 8.217 5.801h.061c3.709-.026 7.002-2.403 8.196-5.915.04-.105 9.227-29.809 9.341-30.17.112.342 9.142 29.719 9.336 30.283 1.235 3.476 4.532 5.801 8.217 5.801h.059c3.708-.025 7.002-2.401 8.197-5.912.334-.746 10.551-52.992 10.829-54.078.807-4.062-1.831-8.01-5.893-8.819z"/><path d="m311.11 221.474c-19.038 0-34.527 15.488-34.527 34.526s15.489 34.526 34.527 34.526 34.526-15.488 34.526-34.526-15.488-34.526-34.526-34.526zm0 54.053c-10.767 0-19.527-8.759-19.527-19.526s8.76-19.526 19.527-19.526 19.526 8.759 19.526 19.526c.001 10.766-8.759 19.526-19.526 19.526z"/><path d="m356.074 322.123c6.893 1.244 13.975.686 20.549-1.611 4.709 1.774 9.657 2.672 14.723 2.671 3.694-.006 9.288-.703 14.746-2.678 8.198 2.733 18.467 3.261 28.023-.481 4.807 1.936 9.88 2.916 15.097 2.916h21.513c22.62 0 41.136-18.068 41.275-40.277.034-5.492-1.01-10.814-3.105-15.835.973-3.516 1.465-7.154 1.465-10.83 0-3.675-.493-7.313-1.465-10.829 2.095-5.022 3.14-10.345 3.105-15.835-.139-22.209-18.654-40.277-41.274-40.277h-21.513c-7.063 0-13.965 1.833-20.063 5.314-5.627-3.236-11.974-5.129-18.457-5.492-6.727-.375-13.48.894-19.604 3.68-6.258-2.845-13.165-4.102-20.05-3.649-9.178.614-17.909 4.266-24.797 10.333-10.753-6.83-23.117-10.429-35.894-10.429-11.493 0-22.801 2.96-32.798 8.574-10.003-5.614-21.325-8.574-32.839-8.574-13.013 0-25.566 3.718-36.443 10.774-7.51-6.963-17.208-10.774-27.522-10.774-5.314 0-10.475 1.015-15.355 3.02-4.704-1.843-9.66-2.776-14.747-2.776h-22.254c-5.167 0-10.163.951-14.879 2.824-7.919-3.404-20.014-4.094-29.538-.363-8.192-3.04-19.375-3.855-28.994-.048-7.11-2.718-14.8-3.371-22.304-1.886-21.925 4.336-36.235 25.702-31.898 47.629 2.934 13.348 8.542 46.381 11.953 58.206 5.9 16.606 21.705 27.764 39.328 27.764 4.589.001 11.305-1.067 17.324-3.786 5.423 2.48 11.392 3.786 17.338 3.786h.283c7.362-.05 14.553-2.052 20.899-5.805 6.204 3.644 13.252 5.562 20.487 5.562h22.254c5.107 0 10.082-.941 14.801-2.798 2.713 1.105 5.551 1.916 8.449 2.413 2.895.497 4.082.64 11.995.64 3.184 0 7.565-.022 13.75-.057 6.795-.038 13.473-1.785 19.392-5.065 8.159 3.392 16.792 5.11 25.682 5.11 11.658 0 22.83-3.039 32.412-8.803 10.097 5.764 21.551 8.803 33.225 8.803 10.54 0 21.004-2.507 30.366-7.264 4.638 3.114 9.797 5.199 15.359 6.203zm-45.726-13.939c-9.458 0-18.725-2.567-26.8-7.423-4.1-2.466-9.157-2.4-13.197.172-7.556 4.812-16.182 7.251-25.64 7.251-7.236 0-14.25-1.465-20.848-4.356-3.672-1.609-7.953-1.328-11.448.749-3.88 2.305-8.328 3.537-12.861 3.562-6.147.035-10.501.057-13.666.057-6.987 0-7.511-.09-9.46-.424-2.051-.352-4.051-.952-5.948-1.784-1.595-.699-3.309-1.049-5.023-1.049-1.659 0-3.317.328-4.865.984-3.153 1.339-6.5 2.018-9.948 2.018h-22.254c-4.894 0-9.649-1.392-13.752-4.025-4.101-2.633-9.394-2.63-13.482.003-4.276 2.756-9.206 4.23-14.25 4.265h-.185c-4.112 0-8.075-.925-11.779-2.749-3.534-1.74-7.588-1.739-11.124.001-2.432 1.185-6.765 2.607-11.76 2.748-11.29 0-21.414-7.147-25.193-17.785-.633-.263-11.008-54.868-11.373-56.096-2.732-13.813 6.282-27.272 20.095-30.004 4.946-.98 10.013-.485 14.653 1.427 3.041 1.253 6.41 1.251 9.489-.005 5.033-2.082 12.499-2.7 19.474.043 3.045 1.267 6.406 1.275 9.46.027 5.916-2.25 14.075-2.845 21.446 1.023 2.122 1.062 4.66 1.055 6.778-.016 3.593-1.818 7.463-2.74 11.503-2.74h22.254c3.434 0 6.769.674 9.912 2.002 3.152 1.332 6.771 1.297 9.928-.093 3.243-1.428 6.695-2.152 10.262-2.152 6.917 0 13.393 2.721 18.235 7.661 4.316 4.406 11.08 5.084 16.083 1.615 8.748-6.068 18.999-9.275 29.646-9.275 9.323 0 18.479 2.497 26.48 7.221 3.922 2.316 8.798 2.314 12.725-.004 7.993-4.721 17.133-7.217 26.432-7.217 10.469 0 20.58 3.114 29.242 9.005 4.813 3.271 11.383 2.662 15.626-1.45 4.547-4.41 10.522-7.071 16.82-7.493 4.659-.31 9.333.608 13.515 2.652 3.522 1.722 7.563 1.72 11.085-.003 4.093-2.001 8.66-2.929 13.219-2.67 4.49.251 8.88 1.651 12.694 4.046 4 2.514 9.161 2.525 13.146.029 4.047-2.534 8.721-3.874 13.518-3.874h21.513c14.4 0 26.187 11.381 26.274 25.371.023 3.668-.715 7.211-2.193 10.532-1.209 2.716-1.401 5.779-.539 8.623.725 2.393 1.092 4.888 1.092 7.416s-.368 5.023-1.092 7.415c-.862 2.844-.671 5.907.539 8.625 1.478 3.319 2.216 6.862 2.193 10.531-.087 13.99-11.874 25.371-26.275 25.371h-21.513c-3.515 0-6.924-.706-10.131-2.096-3.091-1.341-6.65-1.361-9.763-.058-4.204 2.001-12.627 2.781-18.86.346-2.936-1.111-6.149-1.075-9.049.099-2.104.843-5.826 1.853-10.063 1.952-3.471 0-6.851-.655-10.047-1.948-2.893-1.17-6.103-1.204-9.038-.097-7.099 2.602-16.314 2.196-24.052-3.281-3.818-2.795-9.02-3.13-13.248-.856-7.522 4.043-16.033 6.181-24.612 6.181z"/><path d="m37.5 97.756c-4.142 0-7.5 3.358-7.5 7.5v61.097c0 4.142 3.358 7.5 7.5 7.5s7.5-3.358 7.5-7.5v-61.097c0-4.143-3.358-7.5-7.5-7.5z"/><path d="m178.5 391.756c-4.142 0-7.5 3.358-7.5 7.5v13.597c0 4.49-2.426 8.656-6.332 10.872l-119.668 67.897v-146.31c0-4.142-3.358-7.5-7.5-7.5s-7.5 3.358-7.5 7.5v151.688h-2.5c-6.893 0-12.5-5.607-12.5-12.5v-142.374c0-4.142-3.358-7.5-7.5-7.5s-7.5 3.358-7.5 7.5v142.374c0 15.164 12.336 27.5 27.5 27.5h10c.92-.083 2.081-.061 3.701-.977l130.869-74.252c8.592-4.875 13.93-14.04 13.93-23.918v-13.597c0-4.143-3.358-7.5-7.5-7.5z"/><path d="m178.5 337.812c-4.142 0-7.5 3.358-7.5 7.5v19.05c0 4.142 3.358 7.5 7.5 7.5s7.5-3.358 7.5-7.5v-19.05c0-4.142-3.358-7.5-7.5-7.5z"/><path d="m333.5 173.805c4.142 0 7.5-3.358 7.5-7.5v-67.157c0-4.49 2.426-8.656 6.332-10.872l44.135-25.042c3.603-2.044 4.866-6.622 2.822-10.224-2.044-3.603-6.622-4.865-10.224-2.822l-44.135 25.041c-8.593 4.875-13.93 14.04-13.93 23.919v67.157c0 4.142 3.358 7.5 7.5 7.5z"/><path d="m7.5 183.757c4.142 0 7.5-3.358 7.5-7.5v-148.757c0-6.892 5.607-12.5 12.5-12.5h2.5v55.404c0 4.142 3.358 7.5 7.5 7.5s7.5-3.358 7.5-7.5v-50.025l119.668 67.897c3.906 2.215 6.332 6.381 6.332 10.872v67.157c0 4.142 3.358 7.5 7.5 7.5s7.5-3.358 7.5-7.5v-67.157c0-9.879-5.337-19.044-13.929-23.918l-130.87-74.253c-.792-.367-1.882-.98-3.701-.977h-10c-15.164 0-27.5 12.337-27.5 27.5v148.757c0 4.142 3.358 7.5 7.5 7.5z"/><path d="m484.5 0h-9.957c-.97.079-2.08.05-3.745.977l-56.784 32.217c-3.603 2.044-4.866 6.622-2.822 10.225s6.621 4.866 10.224 2.822l45.584-25.862v145.974c0 4.142 3.358 7.5 7.5 7.5s7.5-3.358 7.5-7.5v-151.353h2.5c6.893 0 12.5 5.607 12.5 12.5v148.853c0 4.142 3.358 7.5 7.5 7.5s7.5-3.358 7.5-7.5v-148.853c0-15.163-12.336-27.5-27.5-27.5z"/><path d="m504.5 328.578c-4.142 0-7.5 3.358-7.5 7.5v148.422c0 6.893-5.607 12.5-12.5 12.5h-2.5v-150.922c0-4.142-3.358-7.5-7.5-7.5s-7.5 3.358-7.5 7.5v145.543l-119.668-67.897c-3.906-2.215-6.332-6.381-6.332-10.872v-67.541c0-4.142-3.358-7.5-7.5-7.5s-7.5 3.358-7.5 7.5v67.541c0 9.879 5.337 19.044 13.929 23.918l130.87 74.252c.793.368 1.878.979 3.701.977h10c15.164 0 27.5-12.336 27.5-27.5v-148.421c0-4.142-3.358-7.5-7.5-7.5z"/></g></svg>
